<svg xmlns="http://www.w3.org/2000/svg" width="353" height="90"><g fill="none"><path fill="#231F20" d="M124.15 50.21l-13.83.22v-6.19c-.08-3.73.04-7.47.36-11.2h11.02c.91 0 2.34 0 4.15.07 1.04 0 1.73-.62 2.05-1.85v-.04a1.96 1.96 0 0 0-.35-1.13c-.07-.49-.87-.95-5.54-.95-7.87 0-12.1.15-12.92.48a2.15 2.15 0 0 0-2.05 1.07c-.4.12-.97 1.3-.97 13.35v8.4c.04.15.06.3.07.47v1.32c0 4.6.1 11.23.32 19.7 0 2.04.74 3.11 2.18 3.11 1.13 0 1.84-.64 2.12-1.93a701.7 701.7 0 0 1-.39-20.73l13.68-.22c1.1 0 1.8-.62 2.12-1.89 0-1.07-.67-1.75-2.02-2.06zm18.33-12.32c-1.2-5.7-2.75-8.46-4.92-8.46-1.51 0-2.83 1.26-3.9 3.76a109.96 109.96 0 0 0-3.95 16.68 341.53 341.53 0 0 0-3.65 24.76 2.1 2.1 0 0 0 2.14 2.2 2.08 2.08 0 0 0 2.03-1.45c.52-4.75 1.4-11.26 2.67-19.33.51.14 2.2.28 8.5.07.5 3.69 1.2 9.4 2.06 16.96 0 2.62.78 3.95 2.4 3.95 1.68-.2 2.04-1.2 2.04-2a349.6 349.6 0 0 0-1.45-12.68c-1.46-11.76-2.82-20-3.97-24.46zm-5.09-2.83c1.16 3.7 2.29 9.44 3.36 17.15-3.95.16-6.43.25-7.24.27 1.11-6.4 2.05-10.9 2.79-13.49.46-1.7.83-3 1.1-3.92zm37.94-5.76c-1.4 0-2.48 1.3-3.21 3.84a363.91 363.91 0 0 0-5.65 24.98 475.08 475.08 0 0 0-7.07-23.56c-.97-3.34-2.12-4.95-3.6-4.95a1.78 1.78 0 0 0-1.34.4c-.66.1-1.29 1.56-1.29 9.75v1.13c0 10.41.3 21.5.78 32.93 0 2.05.74 3.11 2.18 3.11a2.1 2.1 0 0 0 2.15-1.88V75a693.8 693.8 0 0 1-.9-32.95c1.7 5.51 4 13.57 6.89 24.06.35 2.27 1.26 3.41 2.7 3.41h.05l.19-.05c1.16 0 1.91-1.56 2.28-4.68 2-10.4 3.66-18.46 4.99-24.07.78 15.26 1.22 26.44 1.22 33.26 0 2.04.78 3.12 2.34 3.12h.05c1.29-.35 1.94-.99 1.94-1.9-.4-19.65-1-33.39-1.8-40.84-.28-3.39-1.25-5.06-2.9-5.06zm15.55-.13h-.05a2.13 2.13 0 0 0-2.24 1.9c.08 24.2.12 39 .12 43.98 0 1 .67 1.66 2.03 1.96a2.11 2.11 0 0 0 2.21-1.9c-.08-24.2-.12-39-.12-43.98 0-1-.67-1.65-1.95-1.96zm32.42 43.41h-.06c-4.57.35-8.5.52-11.68.52a21.15 21.15 0 0 1-3.94-.27c.08-.61.14-2.73.1-10.66 0-8.93.17-19.36.51-31.03 0-1-.66-1.65-1.98-1.96h-.04a2.2 2.2 0 0 0-2.2 1.67.13.13 0 0 0 0 .05c-.35 11.7-.52 22.13-.52 31.17V66c.2 8.5.72 9.35 1.05 9.52.5 1 2.76 1.49 6.87 1.49 3.04 0 6.49-.13 10.24-.39 2.43 0 3.67-.7 3.67-2.09-.01-1-.67-1.65-2.02-1.95zm16.59-42.86a2.69 2.69 0 0 0-1.56.69.1.1 0 0 0-.05.04c-.38.66-2.9 7.02-7.7 19.38-3.36-9.8-5.25-15.25-5.59-16.2-.5-2.21-1.39-3.33-2.67-3.33-1.12 0-1.83.64-2.1 1.91a.16.16 0 0 0 0 .09c.26 1.03 2.9 8.76 8.04 23.64l.29 19.1c0 1 .66 1.67 2.02 1.97 1.12.05 2.1-.77 2.24-1.89v-.04l-.36-18.81c6.08-15.3 9.3-23.54 9.58-24.45a.16.16 0 0 0 0-.08c-.24-1.35-.98-2.02-2.14-2.02zm17.49 22.3c3.43-2.68 5.17-6.6 5.17-11.7a13.59 13.59 0 0 0-.69-4.44c-1.7-4.45-5.45-6.7-11.15-6.7l-1.48.06c-1.68 0-2.78.5-3.28 1.48-.73 1.17-1.1 4.33-1.1 9.64 0 5.15.34 12.7 1 22.43.57 10.68.85 12.97 1.07 13.45.05.41.74.78 4.68.78 2.9.1 5.8-.38 8.5-1.44 4.14-1.8 6.24-4.77 6.24-8.8v-.36c0-4.56-1.34-8.3-4-11.16a14.85 14.85 0 0 0-4.96-3.25zm-6 2.98c1.05.04 2.09.17 3.11.38 5.08 1.14 7.66 4.9 7.66 11.2 0 4.32-3.59 6.51-10.67 6.51h-.67c-.26-2.89-.64-8.94-1.14-17.98.56-.08 1.13-.12 1.7-.11zm6.9-14.75c0 3.7-1.1 6.57-3.27 8.48-2.14 1.63-4.01 2.49-5.58 2.54a471.2 471.2 0 0 1-.34-10.9c-.04-2.46.11-4.92.46-7.35.37.08.74.1 1.12.09 5.15-.02 7.6 2.32 7.6 7.14h.01zm24.8-11.08a9.82 9.82 0 0 0-4.3 1.06 10.06 10.06 0 0 0-4.67 5.77c-1.82 5.13-2.7 11.4-2.7 18.62v.07c0 9.42 1.11 15.7 3.35 18.7a8.67 8.67 0 0 0 7.1 3.65 10.27 10.27 0 0 0 6.96-2.73 11.14 11.14 0 0 0 3.28-6.1 87.28 87.28 0 0 0 1.12-13.98c0-7.79-.42-13.66-1.26-17.39-1.7-5.09-4.69-7.67-8.87-7.67zm3.9 40.91a5.93 5.93 0 0 1-5.1 3.01c-1.87 0-3.3-.96-4.33-2.9-1.3-3.36-1.96-8.58-1.96-15.44a67.3 67.3 0 0 1 1.39-13.82 25.32 25.32 0 0 1 1.56-4.94c1.14-1.92 2.6-2.9 4.38-2.9a4.03 4.03 0 0 1 3.43 1.76c1.73 1.44 2.6 7.9 2.6 19.22a94.77 94.77 0 0 1-.93 12.7 12.03 12.03 0 0 1-1.04 3.31zm25.14-40.9a9.8 9.8 0 0 0-4.31 1.05 10.06 10.06 0 0 0-4.68 5.77c-1.78 5.13-2.68 11.4-2.68 18.62v.07c0 9.42 1.13 15.7 3.35 18.7a8.69 8.69 0 0 0 7.11 3.65 10.27 10.27 0 0 0 6.96-2.73 11.14 11.14 0 0 0 3.28-6.1 87.28 87.28 0 0 0 1.13-13.94c0-7.8-.42-13.67-1.26-17.4-1.73-5.12-4.71-7.7-8.9-7.7zm3.93 40.9a5.93 5.93 0 0 1-5.1 3.01c-1.87 0-3.3-.96-4.33-2.9-1.3-3.36-1.96-8.58-1.96-15.44-.01-4.64.45-9.27 1.39-13.82.35-1.7.87-3.35 1.56-4.94 1.14-1.92 2.62-2.9 4.38-2.9a4.03 4.03 0 0 1 3.43 1.76c1.73 1.44 2.6 7.9 2.6 19.22a94.77 94.77 0 0 1-.92 12.7 12.03 12.03 0 0 1-1.05 3.31zm36.38 4.36a.24.24 0 0 0-.04-.08L336.15 53c.34-.38 1.12-1.43 3.18-4.17L349 35.88c2.69-3.42 3-4.26 3-4.59 0-1-.68-1.66-2.04-1.98h-.06a2.9 2.9 0 0 0-1.51.61l-13.47 17.92v-16.5c-.17-1.8-1.24-2.17-2.1-2.17-.87 0-1.96.38-2.13 2.19v43.48c.17 1.79 1.25 2.17 2.12 2.17.87 0 1.94-.38 2.11-2.19V58.15c5.96 7.87 9.96 13.08 11.88 15.49 1.49 2.26 2.66 3.37 3.6 3.37 1.13 0 1.84-.65 2.12-1.92v-.07l-.09-.58z"/><path fill="#EE4442" d="M21.46 9L10 29.75l36.4 15.86.54-28.43z"/><path fill="#231F20" d="M46.25 46.33a.89.89 0 0 1-.35-.07L9.52 30.4a.84.84 0 0 1-.47-.52.85.85 0 0 1 .06-.69L20.57 8.45a.86.86 0 0 1 1.01-.4l25.49 8.17c.36.12.6.46.58.84l-.58 28.43a.88.88 0 0 1-.4.7.9.9 0 0 1-.42.14zM11.08 29.2L45.4 44.16l.52-26.49L21.73 9.9 11.08 29.2z"/><ellipse cx="33.45" cy="14.46" fill="#FFF" rx="13.46" ry="13.46"/><path fill="#231F20" d="M34.32 28.65a14.32 14.32 0 0 1-8.5-25.85 14.32 14.32 0 0 1 16.8-.16A14.32 14.32 0 0 1 48 18.54a14.35 14.35 0 0 1-13.69 10.1zm-.01-26.91a12.6 12.6 0 1 0-3.7 24.63 12.59 12.59 0 0 0 7.43-24.05 12.63 12.63 0 0 0-3.73-.58z"/><path fill="#FFF" d="M45.52 53.02C45.52 41.97 37.8 33 28.26 33 18.72 33 11 41.97 11 53.02c0 11.05 34.52 11.06 34.52 0z"/><path fill="#231F20" d="M28.14 62.04c-4.66 0-8.97-.76-12.22-2.14-3.87-1.65-5.92-4.07-5.92-7.02C10 41.38 18.14 32 28.13 32c9.98 0 18.13 9.37 18.13 20.89 0 6.3-9.4 9.15-18.12 9.15zm0-28.31c-9.04 0-16.4 8.6-16.4 19.16 0 4.88 8.25 7.43 16.4 7.43s16.4-2.55 16.4-7.43c0-10.57-7.36-19.16-16.4-19.16z"/><path fill="#FAD009" d="M63.93 54.39c0-8.5-6.03-15.39-13.46-15.39S37 45.89 37 54.39s26.93 8.5 26.93 0z"/><path fill="#231F20" d="M50.33 61.48a25.6 25.6 0 0 1-9.6-1.66C36.83 58.17 36 55.87 36 54.24 36 45.28 42.43 38 50.33 38s14.33 7.28 14.33 16.24c0 1.63-.82 3.93-4.73 5.58a25.6 25.6 0 0 1-9.6 1.65zm0-21.76c-6.98 0-12.6 6.51-12.6 14.55 0 2.73 4.33 5.5 12.6 5.5s12.58-2.8 12.58-5.53c0-8-5.64-14.5-12.58-14.5v-.02z"/><ellipse cx="50.65" cy="30.65" fill="#FFF" rx="9.64" ry="9.65"/><path fill="#231F20" d="M50.5 41.01a10.5 10.5 0 1 1 0-21 10.5 10.5 0 0 1 0 21zm0-19.28a8.78 8.78 0 0 0-8.77 8.78 8.78 8.78 0 1 0 17.55 0 8.79 8.79 0 0 0-8.77-8.79z"/><path fill="#FFF" d="M47 33a3.86 3.86 0 0 0 7.25.1"/><path fill="#231F20" d="M50.5 36.32a4.71 4.71 0 0 1-4.45-3.16.86.86 0 0 1 1.63-.59 2.99 2.99 0 0 0 5.62.09.87.87 0 1 1 1.63.62 4.75 4.75 0 0 1-4.42 3.04zm-2.49-6.25a1.04 1.04 0 0 1-1-1.03 1.29 1.29 0 0 1 0-.2.73.73 0 0 1 .05-.2.78.78 0 0 1 .1-.18.66.66 0 0 1 .13-.16 1.05 1.05 0 0 1 .93-.28 1.12 1.12 0 0 1 .53.28c.05.05.1.1.13.16a.99.99 0 0 1 .15.37v.2a.97.97 0 0 1-.07.4.85.85 0 0 1-.1.18.69.69 0 0 1-.13.16l-.16.13a1.27 1.27 0 0 1-.17.09c-.13.05-.26.08-.4.08H48zm5 0a1.12 1.12 0 0 1-.57-.17 1.6 1.6 0 0 1-.15-.13.69.69 0 0 1-.13-.16.85.85 0 0 1-.1-.18 1.2 1.2 0 0 1-.05-.2.8.8 0 0 1 0-.2.84.84 0 0 1 0-.2 1.07 1.07 0 0 1 .15-.37.66.66 0 0 1 .13-.16 1.6 1.6 0 0 1 .15-.13 1.24 1.24 0 0 1 .38-.15 1.16 1.16 0 0 1 .4 0 1.12 1.12 0 0 1 .53.28c.05.05.1.1.13.16a1.08 1.08 0 0 1 .16.37 1.39 1.39 0 0 1 0 .2v.2c0 .07-.04.14-.06.2a.85.85 0 0 1-.1.18.69.69 0 0 1-.13.16l-.16.13a1.27 1.27 0 0 1-.17.09 1.2 1.2 0 0 1-.4.08z"/><path fill="#EE4442" d="M30.04 1.48a13.05 13.05 0 0 1 7.42.12 13.28 13.28 0 0 1 9.11 10.39c.18.98-17.53-10.23-16.53-10.5z"/><path fill="#231F20" d="M46.4 12.8c-.48 0-1.91-.49-8.97-4.97-8.15-5.16-8.3-5.81-8.4-6.2a.93.93 0 0 1 .64-1.12A14.07 14.07 0 0 1 47.3 11.7a.91.91 0 0 1-.7 1.05 1.26 1.26 0 0 1-.18.04zM31.65 1.85a156.9 156.9 0 0 0 13.59 8.62 12.34 12.34 0 0 0-13.6-8.62z"/><path fill="#FFF" d="M27 18a5.55 5.55 0 0 0 9.8 3.03"/><path fill="#231F20" d="M33.42 23.79a6.55 6.55 0 0 1-1.92-.29 6.34 6.34 0 0 1-4.5-5.57.87.87 0 1 1 1.75-.11A4.68 4.68 0 0 0 37 20.37a.87.87 0 0 1 1.36 1.06 6.25 6.25 0 0 1-4.95 2.36z"/><path fill="#FFF" d="M36 13a1.68 1.68 0 0 0 3.1.96"/><path fill="#231F20" d="M38.5 16.49a2.51 2.51 0 0 1-.71-.1 2.61 2.61 0 0 1-1.79-2.5.87.87 0 1 1 1.75-.04.9.9 0 0 0 .58.88.89.89 0 0 0 .96-.4.86.86 0 1 1 1.41 1 2.68 2.68 0 0 1-2.2 1.16z"/><path fill="#FFF" d="M30 12a1.68 1.68 0 0 0 3.1.96"/><path fill="#231F20" d="M31.48 14.48c-.25 0-.5-.03-.73-.1a2.62 2.62 0 0 1-1.75-2.5.87.87 0 0 1 .85-.88.86.86 0 0 1 .86.85.9.9 0 0 0 .58.88.89.89 0 0 0 .97-.4.86.86 0 0 1 1.4 1 2.68 2.68 0 0 1-2.18 1.15z"/><path fill="#FFF" d="M76.88 73.22V38.08s-21.18-2.4-36.02 19.26c0 0-13.16-20.13-36.86-18.39v33.4"/><path fill="#231F20" d="M76.77 73.95a.87.87 0 0 1-.87-.87V38.76a35.89 35.89 0 0 0-11.4 1.55c-6.39 1.88-15.54 6.44-23.04 17.38a.87.87 0 0 1-.71.38.87.87 0 0 1-.72-.4 44.85 44.85 0 0 0-9.4-9.67c-5.45-4.19-14.32-8.98-25.88-8.37V72.2a.87.87 0 1 1-1.75 0V38.8c0-.45.36-.83.82-.85 12.52-.92 22.1 4.23 27.92 8.72a47.96 47.96 0 0 1 9 9.03c7.67-10.67 16.87-15.18 23.32-17.08 7.23-2.14 12.55-1.57 12.8-1.54a.86.86 0 0 1 .77.86v35.14a.87.87 0 0 1-.86.86z"/><path fill="#46BBBF" d="M4 47.25s20.18-2.6 36.86 10.54c0 0 11.42-11.4 36-10.76v29.31s-17.13-3.07-36 11.41c0 0-7.45-10.1-36.86-12.29v-28.2z"/><path fill="#231F20" d="M40.73 89.45h-.12a.88.88 0 0 1-.58-.34c-.07-.1-7.7-9.81-36.23-11.94a.86.86 0 0 1-.8-.86V48.08a.85.85 0 0 1 .75-.86c.2 0 20.27-2.45 36.93 10.28 2.6-2.28 14.12-11.06 36.06-10.47a.86.86 0 0 1 .84.86V77.2a.86.86 0 0 1-1.02.85c-.16-.03-16.98-2.8-35.3 11.24a.87.87 0 0 1-.53.16zm-36-13.96c24.85 2 33.9 9.6 36.12 11.9 16.29-12.21 31.05-11.63 35-11.22V48.73c-12.09-.18-20.78 2.64-25.98 5.07-5.7 2.66-8.5 5.4-8.53 5.44a.87.87 0 0 1-1.16.07C25.78 47.95 8.5 48.57 4.69 48.84l.04 26.65z"/><path fill="#231F20" d="M40 57h1.73v31.08H40z"/><ellipse cx="5.49" cy="58.18" fill="#FFF" rx="4.49" ry="5.18"/><path fill="#231F20" d="M5.35 64.09C2.4 64.09 0 61.38 0 58.04S2.4 52 5.35 52c2.95 0 5.35 2.71 5.35 6.04 0 3.34-2.4 6.05-5.35 6.05zm0-10.36c-2 0-3.6 1.94-3.6 4.3 0 2.38 1.62 4.33 3.62 4.33s3.62-1.94 3.62-4.32c0-2.38-1.64-4.31-3.64-4.31z"/><ellipse cx="74.49" cy="58.18" fill="#FFF" rx="4.49" ry="5.18"/><path fill="#231F20" d="M75.35 64.09c-2.95 0-5.35-2.71-5.35-6.04C70 54.7 72.4 52 75.35 52c2.95 0 5.35 2.71 5.35 6.04 0 3.34-2.4 6.05-5.35 6.05zm0-10.36c-2 0-3.62 1.94-3.62 4.32s1.62 4.31 3.62 4.31 3.63-1.94 3.63-4.31c0-2.38-1.63-4.32-3.63-4.32z"/></g></svg>
